<svg width="1440" height="1728" viewBox="0 0 1440 1728" fill="none" xmlns="http://www.w3.org/2000/svg">
<path d="M9.93637 768.375C7.28084 772.784 4.62531 776.928 2.6071 780.009C-24.2668 817.888 -56.08 851.463 -91.8234 888.332L-106.641 903.154C-136.171 933.01 -166.762 963.876 -185.032 1000.37C-192.096 1014.56 -194.274 1025.55 -191.353 1032.25C-190.723 1033.72 -189.77 1035.02 -188.565 1036.07C-187.361 1037.12 -185.935 1037.88 -184.395 1038.3C-182.924 1038.7 -181.405 1038.9 -179.881 1038.89C-170.86 1038.02 -162.212 1034.86 -154.759 1029.7C-135.165 1017.26 -116.346 1003.63 -98.4091 988.898C-83.5913 977.263 -68.3486 965.257 -52.5748 954.791C11.1579 912.663 53.009 884.825 72.6599 806.041C76.7495 789.784 79.1394 752.65 66.5522 736.553C64.6088 733.905 62.0249 731.795 59.0429 730.42C56.0609 729.044 52.7786 728.449 49.5037 728.69C33.1457 729.965 19.7087 752.172 9.93637 768.375ZM50.8315 730.709C53.6571 730.667 56.4519 731.3 58.9831 732.557C61.5144 733.814 63.7088 735.657 65.3838 737.934C77.6523 753.606 75.2623 790.05 71.2259 806.094C51.7343 884.082 9.93637 911.813 -53.3183 953.729C-69.2515 964.354 -84.4411 976.254 -99.2589 987.941C-117.17 1002.63 -135.953 1016.22 -155.503 1028.64C-167.4 1035.86 -177.544 1038.84 -183.864 1037.03C-185.193 1036.67 -186.419 1036 -187.443 1035.07C-188.467 1034.15 -189.26 1033 -189.759 1031.72C-192.468 1025.55 -190.237 1014.66 -183.492 1001.17C-165.328 964.885 -134.843 934.072 -105.367 904.322L-90.6019 889.288C-54.7523 852.366 -22.9391 818.738 4.04109 780.753C6.21863 777.672 8.76794 773.475 11.4235 769.065C21.0365 753.128 34.1548 731.347 49.6631 730.55L50.8315 730.709Z" fill="#105C04" fill-opacity="0.08"/>
<path d="M41.9618 680.028C18.6463 685.819 -1.69505 718.066 -18.1062 743.779C-23.8421 752.863 -29.2063 761.416 -34.0394 767.525C-60.5704 800.548 -88.941 832.048 -119.016 861.876C-126.505 869.579 -135.958 878.292 -145.943 887.535C-175.579 915.054 -212.438 949.214 -223.644 980.505C-233.098 1006.8 -227.521 1031.93 -222.157 1056.15C-217.749 1076.08 -213.181 1096.69 -216.846 1118.1C-219.076 1131.33 -227.096 1144.4 -235.594 1158.26C-245.791 1174.84 -256.36 1191.94 -256.838 1210.32C-257.038 1216.6 -256.046 1222.85 -253.917 1228.76C-246.906 1248.42 -239.577 1257.61 -230.867 1257.61C-222.157 1257.61 -212.863 1248.63 -199.001 1226.63C-185.723 1205.7 -180.518 1181.37 -175.473 1157.89C-170.427 1134.41 -165.169 1110.08 -151.785 1088.83C-126.292 1048.61 -81.3609 1019.02 -41.7404 993.201L-31.8087 986.614C34.1014 942.892 86.0436 908.467 109.253 815.657C115.414 791.06 113.767 728.532 88.8053 696.55C83.7169 689.229 76.4554 683.694 68.0486 680.729C59.6418 677.764 50.5156 677.519 41.9618 680.028ZM86.734 698.25C109.094 726.885 113.289 787.554 106.65 815.126C83.7598 906.873 32.2957 941.086 -33.2427 984.436L-43.1213 990.97C-83.0073 1017.21 -128.098 1046.96 -153.963 1087.66C-167.612 1108.91 -172.87 1133.77 -178.022 1157.62C-183.174 1181.48 -188.166 1204.96 -201.178 1225.52C-210.473 1240.18 -221.254 1255.22 -230.814 1255.22C-238.143 1255.22 -244.888 1246.34 -251.368 1228.12C-253.414 1222.55 -254.352 1216.63 -254.129 1210.7C-253.492 1193.01 -243.136 1176.16 -233.151 1159.91C-224.494 1145.83 -216.315 1132.55 -213.978 1118.79C-210.313 1096.9 -214.934 1076.29 -219.289 1055.89C-224.6 1030.87 -229.911 1007.28 -220.882 981.514C-209.888 950.861 -173.083 916.914 -143.872 889.607C-133.834 880.363 -124.38 871.598 -116.839 863.788C-86.7685 833.899 -58.3983 802.347 -31.8618 769.279C-27.0288 763.01 -21.6115 754.404 -15.9287 745.266C0.00448608 719.766 20.2396 687.997 42.4929 682.525C46.3124 681.554 50.2364 681.055 54.1772 681.038C60.5784 681.095 66.8733 682.682 72.5367 685.667C78.2 688.652 83.0678 692.948 86.734 698.197V698.25Z" fill="#105C04" fill-opacity="0.08"/>
<path d="M66.3927 564.64C62.6454 558.364 57.5166 553.025 51.3965 549.03C45.2764 545.035 38.3261 542.488 31.0742 541.584C21.7344 540.195 12.8744 536.548 5.26242 530.959L4.46576 530.109C-22.6206 499.774 -113.493 400.855 -144.244 400.855C-145.847 400.771 -147.447 401.075 -148.907 401.74C-150.368 402.406 -151.647 403.415 -152.635 404.68C-156.725 409.993 -156.512 420.618 -151.998 437.671C-149.289 447.658 -123.584 461.471 -96.338 476.134C-73.6598 488.299 -50.185 500.89 -42.2184 510.346C-35.1016 518.793 -25.701 530.534 -26.2852 534.624C-26.2852 535.74 -27.7192 536.378 -29.7905 537.387C-34.5705 539.778 -41.7404 543.337 -37.9164 560.071C-34.1753 572.302 -28.5293 583.866 -21.1866 594.337C-14.7672 603.465 -9.68777 613.466 -6.10324 624.034C0.694916 650.172 -42.1122 698.41 -70.4201 729.86C-79.7676 740.485 -87.8404 749.41 -92.9921 756.422C-114.834 783.843 -138.618 809.657 -164.16 833.666C-212.544 881.479 -262.574 930.673 -280.154 998.727C-306.709 1100.2 -311.967 1190.03 -295.981 1265.47C-287.483 1305.74 -258.166 1361.89 -229.752 1361.89C-212.066 1361.89 -199.16 1340.64 -191.459 1298.62C-161.611 1136.91 -80.5642 1083.25 -2.27927 1031.24C67.4018 985.18 133.046 941.67 161.301 828.779C171.923 786.279 155.565 720.563 134.268 684.278C125.781 670.709 114.523 659.086 101.233 650.172C90.6245 643.052 81.4084 634.049 74.0406 623.609C68.7296 615.322 69.7386 605.706 70.6946 595.559C71.6506 585.412 72.7659 573.778 66.3927 564.64ZM70.907 625.362C78.4614 636.248 87.9916 645.619 99.0025 652.987C111.8 661.673 122.652 672.926 130.869 686.031C151.741 721.678 168.046 786.013 157.424 827.769C129.541 939.332 64.4276 982.47 -4.45679 1028.16C-83.5384 1080.59 -165.329 1134.78 -195.389 1297.98C-202.612 1337.35 -214.615 1358.17 -230.017 1358.17C-254.183 1358.17 -283.5 1307.92 -292.635 1264.72C-308.568 1189.82 -303.257 1100.57 -277.073 999.417C-259.494 932.32 -209.835 883.392 -161.611 836.057C-135.933 811.917 -112.024 785.961 -90.071 758.388C-84.7599 751.694 -77.0058 742.716 -67.7115 732.303C-37.1198 698.038 4.73132 651.075 -2.54483 623.025C-6.28635 612.098 -11.5616 601.76 -18.2124 592.318C-25.3574 582.215 -30.8603 571.044 -34.5174 559.221C-37.6509 545.303 -32.7116 542.859 -28.3565 540.681C-25.9666 539.459 -23.4704 538.237 -23.0455 535.368C-22.1957 531.49 -24.6919 525.54 -39.5097 507.956C-47.795 497.915 -71.323 485.112 -94.5854 472.84C-118.751 459.877 -146.103 445.161 -148.386 436.715C-153.697 417.483 -151.945 410.152 -149.661 406.911C-149.021 406.132 -148.207 405.515 -147.284 405.109C-146.362 404.703 -145.356 404.52 -144.35 404.574C-121.141 404.574 -53.7434 470.715 1.59781 532.553L2.66 533.721C10.773 539.751 20.2351 543.708 30.2244 545.249C37.0071 546.075 43.5093 548.449 49.2283 552.189C54.9472 555.929 59.7297 560.934 63.206 566.818C68.8358 574.893 67.8798 584.668 66.9238 594.975C65.9678 605.281 64.9587 616.278 70.907 625.362Z" fill="#105C04" fill-opacity="0.08"/>
<path d="M22.842 818.153H22.5234C14.9817 818.153 7.33376 827.769 1.75715 834.728C0.53561 836.269 -0.526581 837.597 -1.48257 838.659C-6.79362 844.663 -11.8391 851.038 -16.7253 857.147C-19.9119 861.078 -23.0455 865.063 -26.2852 868.941L-26.7101 869.419C-37.3322 882.01 -41.6342 890.191 -39.9346 894.494C-39.5173 895.349 -38.8782 896.076 -38.0841 896.599C-37.29 897.122 -36.3701 897.423 -35.4202 897.469H-33.88C-12.6358 896.991 4.57201 877.76 12.9635 866.338C20.3029 856.76 25.6157 845.788 28.578 834.091C29.84 829.524 29.406 824.655 27.3565 820.384C26.8105 819.707 26.124 819.157 25.3445 818.772C24.565 818.387 23.7112 818.176 22.842 818.153ZM26.0287 833.559C23.1108 844.895 17.9254 855.522 10.7859 864.797C2.71315 875.847 -13.8042 894.441 -33.9331 894.866H-34.8891C-36.8011 894.866 -37.1198 893.803 -37.226 893.538C-37.8102 892.103 -37.7571 886.95 -24.4263 871.172L-24.0546 870.694C-20.8148 866.816 -17.6282 862.831 -14.4416 858.847C-9.55539 852.738 -4.50988 846.416 0.748062 840.466C1.70405 839.403 2.81936 838.022 4.0409 836.428C8.98019 830.266 16.4688 820.862 22.9483 820.862C23.4235 820.856 23.8933 820.964 24.3183 821.176C24.7434 821.389 25.1113 821.7 25.3913 822.084C26.9681 825.747 27.1939 829.851 26.0287 833.666V833.559Z" fill="#105C04" fill-opacity="0.08"/>
<path d="M583.211 1356.42C653.636 1348.4 729.212 1266.8 730.221 1197.63C731.708 1091.38 670.737 1006.85 611.785 924.935C601.8 911.016 591.443 896.672 581.671 882.435L575.776 873.935C548.052 833.984 516.61 788.669 506.413 739.74C497.756 698.25 484.532 601.615 498.925 568.358C509.547 543.974 539.554 530.002 568.606 516.455C588.682 507.105 607.642 498.286 620.973 486.227L621.61 485.642C667.179 444.364 667.179 444.364 698.249 443.142C707.649 442.823 719.493 442.398 735.851 440.858C750.959 439.537 765.933 436.978 780.623 433.208C785.291 431.806 790.101 430.933 794.963 430.605C804.576 430.605 812.542 437.405 839.045 459.877C917.436 526.23 915.949 641.618 914.515 753.181C912.709 893.644 910.85 1038.84 1069.76 1084.84C1091.23 1091.23 1113.48 1094.57 1135.88 1094.78C1195.63 1094.78 1246.46 1068.21 1282.94 1017.59C1336.48 943.529 1350.71 827.875 1318.37 729.859C1243.64 503.917 1065.24 374.557 872.982 251.307C698.408 139.266 532.172 108.4 390.048 88.2655C380.412 86.8309 370.686 86.0853 360.944 86.0342C303.319 86.0342 275.967 115.359 241.232 152.494C227.293 167.928 212.58 182.645 197.151 196.588C177.606 213.747 152.75 225.488 128.744 236.857C89.5486 255.026 52.5306 272.769 37.2348 311.71C4.73112 394.32 84.5031 458.655 154.822 515.339C187.431 541.902 218.182 566.446 236.187 591.255C307.621 689.696 286.27 855.606 221.475 948.841C201.24 978.007 162.363 1014.03 121.415 1051.9C53.4335 1115.23 -23.5237 1186.79 -37.1731 1246.87C-43.5995 1275.14 -41.9 1294.69 -31.8621 1307.22C-23.6299 1317.48 -9.82118 1322.52 10.6264 1322.52C44.0329 1322.52 91.8324 1308.71 142.5 1294.16C204.374 1276.36 274.48 1256.17 334.335 1256.17C358.962 1255.51 383.446 1260.13 406.141 1269.72C429.191 1280.34 448.629 1295.43 467.589 1310.09C498.712 1334.32 528.189 1357.21 569.827 1357.21C574.3 1357.21 578.769 1356.94 583.211 1356.42ZM407.256 1267.33C384.106 1257.49 359.104 1252.78 333.963 1253.51C273.736 1253.51 203.418 1273.76 141.385 1291.61C90.9295 1306.11 43.2894 1319.81 10.2546 1319.87C-9.13074 1319.87 -22.3022 1315.19 -30.0032 1305.58C-39.2975 1293.89 -40.6253 1274.92 -34.6238 1247.46C-21.1868 1188.17 55.6641 1116.93 123.221 1054.08C164.381 1015.89 203.258 979.707 223.653 950.435C288.979 856.456 310.435 689.165 238.364 589.821C220.094 564.746 189.237 539.777 156.521 513.374C86.8931 457.167 7.81152 393.47 39.6778 312.666C54.6019 274.735 91.142 257.416 129.966 239.141C154.184 227.666 179.199 215.819 199.009 198.447C214.472 184.427 229.203 169.621 243.144 154.088C277.401 117.431 304.434 88.478 360.944 88.478C370.56 88.536 380.161 89.2638 389.676 90.6561C531.535 110.791 697.452 141.603 871.548 253.326C1063.22 376.311 1241.41 505.352 1315.82 730.762C1347.95 827.981 1333.88 942.679 1280.82 1016.1C1244.86 1065.88 1194.73 1092.17 1135.88 1092.17C1113.76 1092.04 1091.77 1088.81 1070.55 1082.56C1000.13 1062.16 955.622 1020.35 934.378 954.632C915.418 895.822 916.32 823.466 917.223 753.5C918.657 641.299 920.144 525.061 840.85 458.07C802.93 426.195 801.92 425.504 780.039 430.87C765.472 434.615 750.622 437.156 735.638 438.467C719.227 440.061 707.596 440.433 698.461 440.751C666.595 441.867 666.595 441.867 620.123 483.783L619.486 484.367C606.474 496.161 587.619 504.927 567.756 514.171C538.227 527.877 507.688 542.061 496.747 567.296C482.089 601.243 495.366 698.515 504.076 740.272C514.38 789.731 545.981 835.259 573.864 875.422L579.759 883.922C589.531 898.054 599.888 912.45 609.926 926.422C668.613 1008.02 729.318 1092.39 727.831 1197.36C726.875 1265.41 652.52 1345.69 583.158 1353.6C578.819 1354.08 574.458 1354.33 570.093 1354.35C529.357 1354.35 500.252 1331.71 469.501 1307.81C450.43 1291.89 429.535 1278.31 407.256 1267.33Z" fill="#105C04" fill-opacity="0.08"/>
<path d="M541.679 1648.08C528.242 1668.32 511.566 1693.55 517.302 1710.98C518.801 1714.82 521.175 1718.26 524.236 1721.03C527.297 1723.79 530.96 1725.81 534.934 1726.91C536.777 1727.56 538.717 1727.88 540.67 1727.87C561.224 1727.87 593.781 1695.99 622.354 1668.21C640.624 1650.41 657.832 1633.57 668.189 1628.9C717.688 1606.43 785.988 1595.75 846.215 1586.4C870.009 1582.68 892.421 1579.17 913.188 1575.13C957.846 1566.11 1003.27 1561.44 1048.83 1561.16C1188.67 1561.16 1306.15 1611.53 1397.93 1710.82C1408.18 1721.92 1423.16 1727.6 1442.38 1727.6C1502.29 1727.6 1605.06 1669.17 1677.45 1561.11C1720.73 1496.46 1783.67 1364.28 1718.24 1205.17C1692 1141.42 1653.07 1111.88 1595.66 1111.88C1552 1111.88 1502.18 1127.82 1444.51 1146.57C1373.55 1169.42 1293.09 1195.34 1206.57 1195.34C1140.54 1195.65 1075.5 1179.32 1017.44 1147.85C832.672 1049.25 827.255 869.419 843.188 723.749C849.402 667.118 839.364 622.28 814.083 594.124C805.262 584.278 794.414 576.458 782.285 571.204C770.155 565.949 757.033 563.383 743.818 563.683C690.707 563.683 623.948 605.068 599.942 684.224C577.37 758.6 630.905 826.441 692.885 904.853C762.513 993.466 842.179 1093.45 826.617 1227.22C818.969 1293.52 794.751 1357.11 761.876 1397.22C736.914 1427.77 714.82 1430.47 691.504 1433.34C673.659 1435.52 655.23 1437.81 633.614 1451.51C617.096 1462.14 611.891 1479.83 606.421 1498.69C603.377 1511.98 598.097 1524.67 590.807 1536.19C586.451 1542.25 578.857 1543.58 570.837 1544.96C560.215 1546.77 548.318 1548.89 541.945 1562.54C537.537 1572.05 543.379 1583.26 549.009 1594.1C553.682 1603.13 558.568 1612.43 557.081 1620.24C555.913 1626.56 549.327 1636.28 541.679 1648.08ZM551.717 1592.77C546.406 1582.15 541.095 1572.11 544.707 1563.93C550.389 1551.71 561.065 1549.85 571.262 1547.99C579.547 1546.55 588.098 1545.07 593.196 1538C600.631 1526.19 606.018 1513.2 609.13 1499.59C614.441 1481.26 619.433 1463.94 634.941 1454.12C656.186 1440.78 674.084 1438.55 691.61 1436.37C715.563 1433.45 738.241 1430.63 763.947 1399.18C797.247 1358.44 821.678 1294.26 829.379 1227.43C844.887 1092.44 765.222 991.713 694.956 902.835C633.454 825.112 580.397 757.962 602.491 685.021C626.072 607.299 691.239 566.658 743.446 566.658C756.226 566.356 768.92 568.825 780.655 573.896C792.39 578.967 802.889 586.521 811.428 596.036C836.124 623.555 845.896 667.543 839.789 723.537C823.856 870.163 829.167 1051.21 1015.64 1150.66C1074.17 1182.38 1139.74 1198.82 1206.3 1198.48C1293.3 1198.48 1374.03 1172.45 1445.3 1149.5C1502.71 1131.01 1552.32 1115.02 1595.5 1115.02C1652.27 1115.02 1689.19 1143.23 1715.21 1206.39C1780.06 1363.91 1717.65 1495.07 1674.74 1559.2C1605.7 1662.58 1502.18 1724.31 1442.22 1724.31C1423.9 1724.31 1409.66 1719 1400 1708.37C1307.64 1608.39 1189.42 1557.71 1048.67 1557.71C1002.92 1558 957.298 1562.69 912.444 1571.73C891.731 1575.77 869.318 1579.28 845.578 1583.05C785.138 1592.51 716.679 1603.18 666.755 1625.82C656.133 1630.76 639.296 1647.07 620.07 1665.71C591.816 1693.29 559.79 1724.52 540.405 1724.52C538.799 1724.53 537.203 1724.28 535.678 1723.78C532.111 1722.9 528.806 1721.19 526.035 1718.77C523.264 1716.36 521.107 1713.32 519.745 1709.91C514.434 1693.98 530.685 1669.38 543.751 1649.67C551.611 1637.82 558.356 1627.62 559.684 1620.77C561.755 1612.06 556.656 1602.28 551.717 1592.77Z" fill="#105C04" fill-opacity="0.08"/>
<path d="M959.818 1404.44C961.951 1405.62 964.343 1406.24 966.776 1406.25C976.177 1406.25 985.471 1397.01 993.65 1388.88C997.436 1384.68 1001.78 1381.01 1006.56 1377.99C1010.79 1375.83 1015.46 1374.67 1020.21 1374.59C1028.8 1375.35 1037.04 1378.35 1044.1 1383.3C1047.08 1384.95 1050.16 1386.65 1053.45 1388.29C1060.78 1392.08 1068.89 1394.08 1077.14 1394.14C1085.07 1393.83 1092.94 1392.55 1100.56 1390.31C1109.22 1387.87 1118.13 1386.43 1127.12 1386.01H1128.39C1148.57 1386.01 1167.06 1396.64 1184.9 1406.57C1202.75 1416.5 1221.07 1427.02 1241.09 1427.02C1250.93 1426.96 1260.61 1424.52 1269.29 1419.9C1275.84 1416.38 1281.96 1412.14 1287.56 1407.26C1295.8 1400.46 1302.91 1394.62 1314.92 1394.62C1318.78 1394.66 1322.64 1395.16 1326.39 1396.1C1360.48 1404.13 1375.46 1435.52 1390.12 1465.86C1396.39 1480.1 1404 1493.7 1412.85 1506.5C1430.64 1530.03 1453.59 1542.94 1477.49 1542.94H1478.71C1502.66 1542.52 1525.66 1529.29 1543.5 1505.75C1567.67 1473.88 1611.54 1369.75 1593.37 1318.01C1591.2 1310.96 1587.22 1304.59 1581.84 1299.54C1576.46 1294.5 1569.85 1290.94 1562.68 1289.22C1557.77 1287.94 1552.72 1287.28 1547.65 1287.25C1532.14 1287.25 1520.51 1294.16 1507.07 1302.23C1504.04 1304.04 1500.91 1305.9 1497.62 1307.54C1470.42 1322.95 1443.39 1326.14 1414.82 1329.54C1403.61 1330.87 1391.98 1332.19 1380.24 1334.37C1367.83 1336.98 1355.7 1340.79 1344.02 1345.74C1329.04 1351.53 1314.92 1357.06 1299.35 1357.06C1288.43 1356.96 1277.68 1354.3 1267.97 1349.3C1246.08 1338.68 1222.18 1328.58 1195.84 1328.58C1187.04 1328.58 1178.27 1329.64 1169.71 1331.72C1165.68 1332.67 1161.69 1333.68 1157.81 1334.69C1143.44 1339.03 1128.58 1341.56 1113.57 1342.23C1101.81 1342.27 1090.18 1339.69 1079.53 1334.69L1074.86 1332.51C1054.78 1323.27 1034.01 1313.65 1012.77 1313.65C1001.17 1313.64 989.769 1316.64 979.682 1322.37C966.404 1329.75 948.612 1360.78 948.612 1382.4C948.219 1386.75 949.062 1391.13 951.044 1395.03C953.027 1398.93 956.068 1402.19 959.818 1404.44ZM981.063 1324.76C990.777 1319.24 1001.76 1316.35 1012.93 1316.36C1033.59 1316.36 1054.09 1325.82 1073.9 1335.01L1078.57 1337.19C1089.59 1342.31 1101.59 1344.96 1113.73 1344.94C1128.95 1344.28 1144.03 1341.71 1158.61 1337.29L1170.45 1334.37C1178.82 1332.34 1187.39 1331.31 1196 1331.29C1221.81 1331.29 1245.34 1341.12 1266.96 1351.74C1277.04 1356.91 1288.19 1359.66 1299.51 1359.77C1315.45 1359.77 1329.89 1354.45 1345.14 1348.29C1356.67 1343.42 1368.64 1339.65 1380.88 1337.03C1392.56 1334.9 1404.09 1333.52 1415.29 1332.19C1444.13 1328.79 1471.38 1325.61 1499.1 1309.88C1502.4 1308.02 1505.58 1306.16 1508.61 1304.3C1521.73 1296.49 1533.04 1289.75 1547.81 1289.75C1552.65 1289.76 1557.47 1290.4 1562.15 1291.66C1568.91 1293.24 1575.13 1296.57 1580.2 1301.32C1585.27 1306.07 1589.01 1312.06 1591.04 1318.7C1608.94 1369.65 1565.44 1472.44 1541.54 1504C1524.22 1526.9 1501.97 1539.7 1478.81 1540.13H1477.65C1454.6 1540.13 1432.4 1527.59 1415.14 1504.74C1406.34 1492.12 1398.84 1478.65 1392.72 1464.53C1377.9 1433.61 1362.66 1401.68 1327.29 1393.34C1323.22 1392.36 1319.05 1391.87 1314.86 1391.91C1301.9 1391.91 1294.47 1398.02 1285.81 1405.13C1280.36 1409.91 1274.39 1414.07 1268.02 1417.51C1259.7 1421.92 1250.45 1424.25 1241.04 1424.31C1221.76 1424.31 1204.45 1414.54 1186.18 1404.18C1167.91 1393.82 1149 1383.3 1128.34 1383.3H1127.01C1117.79 1383.71 1108.64 1385.19 1099.76 1387.71C1092.35 1389.87 1084.7 1391.12 1076.98 1391.43C1069.14 1391.38 1061.42 1389.47 1054.46 1385.85C1051.22 1384.26 1048.19 1382.56 1045.22 1380.91C1037.77 1375.74 1029.09 1372.62 1020.05 1371.88C1014.89 1371.95 1009.82 1373.2 1005.23 1375.54C1000.16 1378.66 995.576 1382.51 991.632 1386.97C983.824 1394.72 974.955 1403.54 966.617 1403.54C964.625 1403.55 962.665 1403.04 960.934 1402.05C957.617 1400.07 954.929 1397.18 953.181 1393.73C951.433 1390.28 950.696 1386.41 951.055 1382.56C951.215 1360.67 969.644 1331.13 980.903 1324.92L981.063 1324.76Z" fill="#105C04" fill-opacity="0.08"/>
<path d="M617.255 1592.24C622.922 1593.34 628.694 1593.81 634.463 1593.62C650.396 1593.62 710.571 1591.18 804.098 1560.31C887.315 1533.7 974.16 1520.19 1061.53 1520.26C1206.09 1520.26 1302.17 1541.93 1425.86 1660.35C1430.57 1664.66 1436.08 1668 1442.07 1670.18C1448.07 1672.36 1454.44 1673.33 1460.81 1673.04C1514.61 1673.04 1595.87 1614.61 1645.95 1539.75C1685.04 1481.32 1741.82 1362.16 1683.13 1219.62C1657.9 1158.26 1626.2 1149.81 1595.66 1149.81C1558 1149.81 1510.68 1165.01 1456.14 1182.65C1382.53 1206.39 1299.09 1233.27 1206.52 1233.27C1134.21 1233.64 1062.97 1215.77 999.386 1181.32C792.255 1070.76 789.387 864.904 805.32 719.659C810.259 674.662 803.249 639.068 785.669 619.412C780.378 613.558 773.872 608.932 766.606 605.858C759.34 602.783 751.49 601.335 743.605 601.615C704.251 601.615 654.645 633.756 636.003 695.222C619.167 750.737 667.02 811.247 722.414 881.16C793.211 970.676 881.321 1082.03 864.166 1231.31C859.479 1273.17 848.017 1313.99 830.229 1352.17C804.116 1409.14 766.715 1460.21 720.29 1502.3C695.004 1524.15 667.829 1543.7 639.084 1560.74C619.274 1573.06 607.218 1580.5 608.174 1586.13C608.492 1588.89 611.519 1590.75 617.255 1592.24ZM640.04 1562.33C668.853 1545.3 696.099 1525.74 721.458 1503.89C768 1461.56 805.457 1410.22 831.556 1352.97C849.455 1314.67 860.973 1273.7 865.653 1231.68C882.861 1081.71 794.538 970.038 723.583 880.31C668.454 810.61 620.814 750.419 637.437 695.7C655.867 634.978 704.728 603.209 743.658 603.209C751.315 602.919 758.941 604.316 765.999 607.299C773.056 610.283 779.372 614.78 784.501 620.474C801.815 639.759 808.666 674.928 803.78 719.447C787.846 865.169 790.661 1071.72 998.695 1182.75C1062.49 1217.31 1133.97 1235.24 1206.52 1234.87C1299.3 1234.87 1382.84 1207.93 1456.67 1184.13C1511.16 1166.55 1558.16 1151.41 1595.6 1151.41C1625.56 1151.41 1656.73 1159.75 1681.64 1220.47C1740.07 1362.32 1683.45 1480.78 1644.47 1539.22C1595.5 1612.27 1513.07 1671.77 1460.65 1671.77C1448.2 1672.32 1436.04 1667.93 1426.82 1659.55C1366.86 1602.12 1311.04 1565.63 1251.24 1544.69C1199.72 1526.68 1142.94 1518.98 1061.37 1518.98C973.839 1518.91 886.833 1532.44 803.461 1559.09C710.146 1589.9 650.396 1592.35 634.304 1592.35C628.66 1592.52 623.015 1592.07 617.468 1591.02C612.582 1589.74 609.979 1588.2 609.714 1586.4C609.13 1581.51 622.089 1573.43 640.04 1562.33Z" fill="#105C04" fill-opacity="0.08"/>
<path d="M743.711 638.272C715.191 638.272 683.962 667.066 673.712 692.938C666.913 710.097 672.065 739.369 687.52 771.351C702.126 801.473 721.511 824.476 735.851 828.938C737.972 829.564 740.172 829.886 742.384 829.895C744.787 829.908 747.176 829.512 749.447 828.726C767.983 822.245 767.558 810.929 766.655 786.226C765.516 764.537 766.12 742.792 768.461 721.2C772.656 682.578 766.655 653.147 758.476 644.063C756.651 641.994 754.361 640.39 751.793 639.383C749.226 638.376 746.455 637.995 743.711 638.272ZM765.805 720.775C763.465 742.474 762.861 764.325 763.999 786.12C764.902 811.088 765.274 820.385 748.597 826.176C744.703 827.48 740.489 827.48 736.594 826.176C722.945 822.085 704.197 799.613 689.91 769.969C674.774 738.679 669.622 710.15 676.155 693.682C686.086 668.66 716.253 640.556 743.711 640.556C746.066 640.291 748.449 640.581 750.672 641.402C752.894 642.223 754.894 643.553 756.511 645.284C764.265 654.316 769.948 682.897 765.805 720.775Z" fill="#105C04" fill-opacity="0.08"/>
<path d="M898.848 1464.1C905.009 1464.02 911.162 1463.59 917.277 1462.83C920.517 1462.51 997.58 1453.85 1080.27 1453.85C1108.77 1453.66 1137.26 1454.99 1165.62 1457.83C1287.78 1470.96 1393.41 1529.18 1443.97 1581.08C1448.18 1585.65 1453.29 1589.28 1458.98 1591.76C1464.66 1594.24 1470.81 1595.51 1477.01 1595.48C1505.32 1595.48 1540.16 1570.83 1572.61 1527.91C1629.49 1452.68 1646.96 1308.66 1618.55 1251.97C1611.06 1236.94 1600.6 1228.97 1588.28 1228.97H1585.14C1562.84 1231.25 1532.03 1240.34 1492.62 1251.87C1419.17 1273.38 1318.58 1302.92 1209.49 1304.67C1116.28 1306.21 1009.74 1269.29 973.468 1251.55C965.85 1247.12 957.412 1244.28 948.665 1243.21C938.043 1243.21 937.406 1253.51 936.609 1270.51C936.346 1288.5 933.649 1306.37 928.59 1323.64C918.902 1354.28 907.047 1384.2 893.112 1413.16C882.118 1436.8 875.426 1451.09 880.153 1458.47C882.755 1462.3 888.544 1464.1 898.848 1464.1ZM894.546 1413.58C908.498 1384.74 920.389 1354.96 930.13 1324.44C935.274 1307.01 938.008 1288.95 938.256 1270.78C938.999 1254.21 939.424 1245.01 948.878 1245.01C957.38 1246.1 965.579 1248.89 972.99 1253.2C1008.63 1270.57 1112.09 1306.32 1204.23 1306.32H1209.54C1318.85 1304.57 1419.6 1275.03 1493.1 1253.2C1532.24 1241.72 1563.21 1232.64 1585.35 1230.4C1598.53 1229.08 1609.25 1236.46 1617.22 1252.35C1645.21 1308.66 1627.84 1451.78 1571.44 1526.63C1539.25 1569.13 1504.84 1593.57 1477.06 1593.57C1471.08 1593.59 1465.15 1592.36 1459.67 1589.96C1454.18 1587.56 1449.25 1584.05 1445.2 1579.65C1394.42 1527.59 1288.36 1469.1 1165.83 1455.92C1137.42 1453.08 1108.88 1451.75 1080.33 1451.94C1025.81 1452.2 971.334 1455.22 917.118 1460.97C911.07 1461.69 904.99 1462.1 898.901 1462.19C889.341 1462.19 883.817 1460.54 881.587 1456.88C877.285 1450.66 883.764 1436.74 894.546 1413.58Z" fill="#105C04" fill-opacity="0.08"/>
<path d="M779.986 1524.72C786.1 1524.51 792.142 1523.33 797.884 1521.21C872.239 1495.39 958.49 1482.86 1061.52 1482.86C1189.89 1482.86 1317.09 1494.65 1461.61 1636.92C1463.77 1638.98 1466.32 1640.59 1469.11 1641.65C1471.9 1642.71 1474.88 1643.2 1477.86 1643.08C1518.28 1643.08 1592.95 1565.63 1615.1 1518.93C1617.11 1514.68 1619.29 1510.16 1621.63 1505.43C1649.83 1447.58 1696.99 1350.79 1648.77 1233.75C1629.54 1186.95 1611.59 1186.95 1595.66 1186.95C1563.79 1186.95 1519.23 1201.35 1467.56 1217.97C1391.34 1242.57 1304.93 1270.41 1206.57 1270.41C1122.39 1270.41 1054.25 1254.95 985.683 1220.26C975.061 1214.95 964.864 1209 955.835 1203.84C937.777 1193.22 923.491 1185.3 914.303 1185.3C907.186 1185.3 903.68 1190.3 903.68 1200.55C903.732 1203.21 903.927 1205.87 904.265 1208.52C914.09 1309.46 875.054 1403.49 788.218 1488.28C773.082 1503.1 766.655 1513.72 769.204 1520.15C770.373 1523.23 774.144 1524.72 779.986 1524.72ZM789.174 1489.28C844.993 1434.73 881.586 1375.54 897.944 1313.33C907.025 1279.15 909.726 1243.58 905.911 1208.41C905.577 1205.84 905.382 1203.25 905.327 1200.66C905.327 1188.33 910.638 1186.95 914.515 1186.95C923.278 1186.95 938.096 1195.45 955.251 1205.28C964.279 1210.59 974.53 1216.33 985.205 1221.75C1054.25 1256.54 1122.34 1272.06 1206.78 1272.06C1305.41 1272.06 1391.93 1244.16 1468.25 1219.57C1519.82 1202.94 1564.27 1188.6 1595.71 1188.6C1611.11 1188.6 1628.48 1188.6 1647.33 1234.39C1695.13 1350.79 1648.29 1446.89 1620.25 1504.74C1617.91 1509.53 1615.73 1514.04 1613.72 1518.29C1591.73 1564.67 1517.8 1641.54 1477.91 1641.54C1475.14 1641.66 1472.38 1641.21 1469.79 1640.24C1467.2 1639.26 1464.83 1637.77 1462.83 1635.86C1395.64 1569.82 1326.17 1526.53 1250.39 1503.63C1182.83 1483.18 1120.11 1481.48 1061.63 1481.48C958.437 1481.48 871.973 1494.07 797.459 1519.88C791.892 1521.97 786.03 1523.15 780.092 1523.39C776.534 1523.39 771.966 1522.65 770.585 1519.35C769.205 1516.06 770.001 1508.25 789.068 1489.5L789.174 1489.28Z" fill="#105C04" fill-opacity="0.08"/>
<path d="M446.93 980.716C444.385 977.986 440.926 976.285 437.211 975.935C429.775 975.935 424.57 985.391 416.71 999.682C406.333 1019.86 393.332 1038.59 378.046 1055.36L372.363 1061.41C350.216 1084.89 340.072 1095.63 342.568 1101.36C343.683 1104.02 347.135 1105.19 353.668 1105.19C362.852 1104.84 372.004 1103.92 381.073 1102.43C386.721 1101.64 392.418 1101.25 398.121 1101.26C444.168 1101.26 482.567 1127.08 510.609 1145.94C527.021 1156.99 539.98 1165.7 549.274 1165.7C551.105 1165.74 552.919 1165.35 554.565 1164.54C556.21 1163.74 557.638 1162.55 558.728 1161.08C588.151 1123.3 485.276 1015.51 446.93 980.716ZM556.656 1159.48C555.8 1160.62 554.682 1161.54 553.398 1162.16C552.113 1162.78 550.699 1163.08 549.274 1163.04C540.776 1163.04 528.03 1154.54 512.097 1143.76C483.736 1124.69 444.965 1098.6 398.121 1098.6C392.293 1098.61 386.473 1099.02 380.701 1099.82C371.753 1101.27 362.725 1102.18 353.668 1102.53C348.357 1102.53 345.648 1101.79 345.011 1100.3C343.205 1096.16 355.633 1083.09 374.275 1063.11L380.117 1057.22C395.575 1040.29 408.72 1021.39 419.206 1001.01C426.589 987.516 431.528 978.591 437.37 978.591C440.418 978.944 443.232 980.399 445.284 982.682C492.764 1025.93 582.681 1125.96 556.656 1159.48Z" fill="#105C04" fill-opacity="0.08"/>
<path d="M447.673 1025.02C429.085 1025.02 405.185 1054.35 405.185 1068.27C405.105 1069.54 405.306 1070.81 405.775 1072C406.243 1073.18 406.968 1074.25 407.896 1075.12C408.824 1076 409.934 1076.65 411.145 1077.05C412.357 1077.44 413.64 1077.56 414.904 1077.41C442.256 1077.94 471.201 1095.26 492.339 1107.95C504.874 1115.44 513.902 1120.91 519.266 1120.91C520.022 1120.96 520.778 1120.84 521.483 1120.56C522.189 1120.29 522.827 1119.86 523.356 1119.32C524.019 1118.44 524.494 1117.44 524.75 1116.37C525.006 1115.3 525.037 1114.19 524.843 1113.11C522.878 1087.61 474.388 1036.45 454.684 1026.62C452.513 1025.52 450.106 1024.97 447.673 1025.02ZM520.966 1113.42C520.966 1115.66 520.7 1116.51 520.435 1116.77C520.169 1117.04 520.063 1117.2 519.107 1117.2C514.805 1117.2 505.192 1111.41 494.092 1104.76C472.582 1091.86 443.159 1074.22 414.798 1073.69C410.549 1073.69 408.69 1071.99 408.743 1068.37C408.743 1055.94 431.103 1028.8 447.673 1028.8C449.51 1028.77 451.328 1029.17 452.984 1029.96C474.069 1040.54 519.213 1090.26 520.966 1113.42Z" fill="#105C04" fill-opacity="0.08"/>
<path d="M381.976 543.177C386.543 543.177 390.155 536.696 393.713 522.192C407.044 468.005 451.126 396.179 519.479 358.035C588.523 319.413 634.782 309.373 659.585 304.007C671.906 301.298 678.067 299.97 679.554 296.729C679.824 296.005 679.917 295.227 679.825 294.46C679.732 293.692 679.457 292.959 679.023 292.32C674.243 283.554 588.735 235.582 465.2 225.647L459.889 225.222C448.789 224.319 439.176 223.522 429.988 223.522C397.803 223.522 371.885 232.501 311.339 283.66C301.779 291.735 292.007 299.279 282.553 306.504C253.289 328.976 227.955 348.367 229.442 370.254C230.717 387.148 247.447 403.883 282.128 423.008C320.474 444.258 343.842 486.12 359.298 513.852C369.495 531.543 375.815 543.177 381.976 543.177ZM283.137 421.733C249.465 403.139 232.523 386.298 231.301 370.201C229.708 348.951 254.723 329.932 283.615 307.779C293.122 300.501 302.894 293.01 312.507 284.882C372.628 234.041 398.334 225.116 430.094 225.116C439.229 225.116 448.789 225.913 459.889 226.816L465.2 227.241C585.655 236.963 673.181 284.776 677.642 293.063C678.545 294.763 678.386 295.56 678.173 296.038C677.005 298.588 670.366 300.023 659.319 302.413C634.463 307.726 588.151 317.873 518.789 356.654C449.426 395.436 405.61 467.527 392.173 521.821C388.933 535.102 385.587 541.583 381.976 541.583C376.665 541.583 369.814 529.046 360.732 513.214C345.383 485.27 321.695 443.089 283.137 421.733Z" fill="#105C04" fill-opacity="0.08"/>
<path d="M392.013 634.393C396.581 634.393 399.821 629.081 402.051 616.968C415.86 543.815 445.708 440.22 545.45 384.917C579.133 366.767 614.938 352.866 652.043 343.533C661.232 340.303 669.854 335.641 677.589 329.72C688.583 322.282 699.948 314.632 710.464 314.632C711.675 314.631 712.884 314.737 714.076 314.951C719.48 316.286 724.465 318.952 728.575 322.707C732.792 326.804 738.283 329.335 744.136 329.879C747.545 329.918 750.896 328.991 753.8 327.205C756.704 325.418 759.044 322.846 760.548 319.786C761.829 316.93 764.003 314.567 766.742 313.053C769.481 311.539 772.638 310.956 775.737 311.392C784.713 312.136 789.546 318.989 794.644 326.214C797.809 331.484 802.087 335.999 807.179 339.442C812.382 342.174 818.14 343.682 824.015 343.851C825.668 344.036 827.342 343.829 828.901 343.247C830.46 342.666 831.861 341.726 832.99 340.504C833.809 339.172 834.308 337.667 834.446 336.109C834.584 334.551 834.359 332.982 833.787 331.526C830.335 319.042 803.461 307.301 785.669 299.651C780.358 297.367 775.896 295.348 772.975 293.807C746.42 279.835 720.184 267.935 697.824 258.16C603.871 216.935 518.204 191.807 435.723 181.288C427.571 180.192 419.358 179.607 411.133 179.535C370.557 179.535 339.115 197.279 276.551 255.504C261.202 269.795 245.375 282.067 230.079 293.914C195.876 320.476 168.843 341.461 169.48 367.864C170.011 388.689 188.122 410.895 226.415 437.777C288.129 480.968 329.131 546.577 356.217 589.981C372.947 616.703 383.994 634.393 392.013 634.393ZM227.371 436.449C189.503 409.886 171.658 388.105 171.127 367.811C170.489 342.204 197.257 321.432 231.142 295.135C246.437 283.289 262.264 270.964 277.666 256.673C339.912 198.766 371.088 181.129 411.186 181.129C419.341 181.201 427.483 181.787 435.564 182.882C517.779 193.507 603.447 218.423 697.399 259.595C719.705 269.317 746.048 281.217 772.444 295.189C775.418 296.782 779.986 298.748 785.244 301.032C802.77 308.682 829.166 320.157 832.459 331.951C832.963 333.173 833.178 334.494 833.085 335.812C832.993 337.13 832.597 338.409 831.928 339.548C830.916 340.528 829.703 341.278 828.374 341.746C827.045 342.213 825.63 342.388 824.227 342.258C818.665 342.052 813.22 340.599 808.294 338.008C803.433 334.696 799.355 330.363 796.344 325.311C791.033 318.086 785.722 310.595 776.268 309.798C772.869 309.277 769.393 309.87 766.358 311.488C763.324 313.106 760.894 315.663 759.432 318.776C757.565 322.247 754.645 325.037 751.094 326.745C748.938 327.641 746.63 328.11 744.296 328.126C738.808 327.559 733.677 325.142 729.743 321.273C725.452 317.473 720.289 314.791 714.713 313.464C713.432 313.25 712.135 313.143 710.836 313.145C699.842 313.145 688.264 320.954 677.058 328.498C669.491 334.326 661.048 338.917 652.043 342.098C614.694 351.383 578.654 365.304 544.759 383.536C444.274 439.158 414.214 543.23 400.352 616.649C398.334 627.54 395.572 632.587 391.907 632.587C384.737 632.587 373.319 614.259 357.492 588.918C330.405 545.621 289.298 479.852 227.318 436.449H227.371Z" fill="#105C04" fill-opacity="0.08"/>
<path d="M588.204 1300.96C606.866 1298.34 624.593 1291.15 639.807 1280.03C655.022 1268.91 667.253 1254.2 675.412 1237.21C690.601 1205.7 698.833 1152.21 651.671 1076.61C631.436 1044.1 609.183 1011.32 587.939 979.601C526.861 888.863 469.13 803.226 445.337 717.269C418.41 620.05 440.026 539.831 513.424 464.871C577.157 399.952 660.965 362.711 743.871 362.711C806.17 362.711 861.776 384.652 900.388 424.443C942.876 468.218 964.12 532.181 961.73 609.478C961.199 627.434 960.35 645.975 959.447 665.631C956.207 735.438 952.595 814.382 963.855 880.363C976.814 956.067 1007.56 1002.55 1057.81 1023.32C1081.79 1033.65 1107.54 1039.26 1133.65 1039.85C1154.15 1040.07 1174.41 1035.3 1192.65 1025.94C1210.9 1016.58 1226.6 1002.92 1238.38 986.136C1282.52 926.37 1293.09 824.051 1264.67 731.453C1203.81 533.084 1057.33 414.402 840.851 287.592C676.367 191.276 537.43 161.42 411.983 143.463C403.19 142.17 394.316 141.495 385.428 141.444C332.955 141.444 307.993 168.007 276.392 202.007C263.637 216.046 250.183 229.433 236.081 242.117C221.344 254.947 205.449 266.383 188.6 276.276C166.453 289.876 147.333 301.617 126.302 333.067C84.5568 395.489 140.429 434.005 199.541 474.38C230.823 495.63 263.274 517.943 280.428 544.134C389.199 708.822 345.276 884.826 267.947 994.423C245.853 1025.77 213.562 1055.36 179.359 1086.65C137.561 1124.95 94.3822 1164.58 69.6327 1208.84C59.0106 1227.86 55.9833 1240.71 60.3915 1248.31C63.6312 1253.62 71.0136 1256.54 82.2199 1256.54C102.614 1256.54 135.33 1248.04 172.508 1238.27C225.14 1224.56 290.626 1207.46 348.463 1207.46C375.27 1206.67 401.937 1211.6 426.695 1221.91C446.851 1232.03 465.732 1244.51 482.939 1259.09C511.3 1281.19 538.121 1302.02 576.042 1302.02C580.113 1301.9 584.174 1301.55 588.204 1300.96ZM427.385 1220.36C402.454 1209.95 375.571 1205.04 348.569 1205.97C290.519 1205.97 224.928 1223.07 172.189 1236.83C135.012 1246.61 102.455 1255 82.2199 1255.06C71.5978 1255.06 64.6934 1252.61 61.7723 1247.62C57.6297 1240.61 60.657 1228.23 71.0136 1209.74C95.6038 1165.75 138.73 1126.23 180.474 1088.03C214.678 1056.63 247.075 1026.99 269.275 995.539C313.851 933.271 340.605 860.022 346.657 783.675C352.659 698.675 330.724 617.818 281.756 543.443C264.283 516.88 231.832 494.727 200.444 473.212C142.022 433.102 86.7343 395.224 127.629 334.13C148.449 302.839 167.675 291.045 189.397 277.551C206.334 267.68 222.334 256.282 237.196 243.498C251.348 230.775 264.838 217.334 277.614 203.229C308.736 169.707 333.486 143.463 385.428 143.463C394.225 143.525 403.009 144.181 411.718 145.429C537.218 163.226 675.943 193.242 840.16 289.239C1056.37 415.943 1202.59 534.306 1263.4 732.357C1291.65 824.476 1281.14 926.211 1237.32 985.605C1225.69 1002.2 1210.18 1015.71 1192.16 1024.96C1174.13 1034.22 1154.12 1038.94 1133.86 1038.73C1107.97 1038.16 1082.43 1032.59 1058.66 1022.31C1008.95 1002.02 978.513 955.695 965.661 880.576C954.401 814.913 958.013 735.916 961.252 666.162C962.155 646.559 963.005 627.965 963.536 610.009C965.873 532.287 944.47 467.899 901.716 423.805C862.679 383.377 806.648 361.277 743.924 361.277C660.594 361.277 576.201 398.464 512.309 463.915C473.326 503.759 449.161 544.824 438.539 589.715C429.085 629.612 430.784 671.581 443.85 718.013C467.749 804.182 525.48 889.979 586.664 980.77C607.908 1012.65 630.055 1045.32 650.396 1077.78C697.187 1152.79 689.114 1205.7 674.084 1236.83C666.033 1253.56 653.976 1268.03 638.984 1278.97C623.991 1289.9 606.53 1296.96 588.151 1299.52C584.167 1299.98 580.159 1300.21 576.148 1300.21C538.971 1300.21 512.415 1279.55 484.001 1257.71C466.679 1243.06 447.673 1230.52 427.385 1220.36Z" fill="#105C04" fill-opacity="0.08"/>
<path d="M623.045 1235.08C629.867 1230.21 635.561 1223.92 639.739 1216.65C643.918 1209.38 646.484 1201.3 647.263 1192.95C653.636 1140.68 607.271 1064.5 565.685 1015.14C513.796 953.517 462.279 887.641 437.105 823.891C434.946 816.246 433.174 808.498 431.793 800.675C423.721 762.85 410.124 699.737 390.527 699.737C388.642 699.805 386.808 700.373 385.216 701.384C377.037 706.219 374.593 715.728 377.833 730.444C381.342 743.584 386.016 756.385 391.801 768.694C397.112 781.657 402.423 792.919 402.158 799.241C402.158 815.657 394.297 822.882 386.915 829.894C380.12 835.168 375.234 842.518 373 850.826C370.238 863.469 375.443 872.979 380.489 882.17C385.534 891.36 389.996 899.382 388.455 910.698C385.64 931.47 319.89 1006.32 261.893 1072.41C214.093 1127.08 172.455 1174.31 173.198 1183.34C173.198 1183.64 173.264 1183.94 173.393 1184.22C173.521 1184.49 173.709 1184.74 173.942 1184.93C177.925 1188.22 185.095 1189.82 195.983 1189.82C219.035 1188.65 241.98 1185.9 264.655 1181.58C298.167 1176.27 336.141 1170.11 369.123 1170.11C394.882 1170.11 414.108 1173.77 428.023 1181.32C435.564 1185.41 443.956 1190.3 452.878 1195.5C492.499 1218.51 541.785 1247.14 583.53 1247.14C597.649 1247.43 611.491 1243.2 623.045 1235.08ZM428.288 1179.99C414.161 1172.29 394.669 1168.57 368.645 1168.57C335.557 1168.57 297.477 1174.68 263.911 1180.04C241.329 1184.38 218.471 1187.13 195.505 1188.28C184.883 1188.28 178.138 1186.84 174.26 1183.76C174.26 1183.76 174.26 1183.76 174.26 1183.28C173.57 1174.89 216.749 1125.64 262.583 1073.53C320.686 1007.28 386.596 932.214 389.464 910.963C391.111 899.17 386.118 890.138 381.338 881.426C376.559 872.713 371.407 863.257 374.009 851.198C376.194 843.224 380.91 836.176 387.446 831.116C395.094 823.891 403.008 816.4 403.379 799.241C403.379 792.547 398.546 781.178 392.757 768.003C387.01 755.806 382.388 743.11 378.949 730.072C375.868 716.1 378.046 707.122 385.587 702.712C386.98 701.806 388.6 701.309 390.261 701.278C408.584 701.278 422.499 766.25 429.988 801.1C431.421 809.027 433.3 816.867 435.617 824.582C460.898 888.332 512.522 954.314 564.464 1015.83C605.89 1064.97 651.99 1140.68 645.67 1192.42C644.898 1200.55 642.394 1208.43 638.326 1215.51C634.259 1222.59 628.722 1228.72 622.089 1233.49C610.688 1241.52 596.995 1245.66 583.052 1245.28C541.732 1245.28 492.764 1216.75 453.197 1193.86C444.274 1188.97 435.883 1184.08 428.288 1179.99Z" fill="#105C04" fill-opacity="0.08"/>
<path d="M604.881 1168.41C609.608 1124.69 562.711 1056 539.289 1029.59C508.333 994.441 479.208 957.718 452.029 919.57C433.546 894.123 423.349 880.098 416.763 880.098C412.249 880.098 409.753 885.942 408.212 900.286C396.634 1008.5 326.688 1067.05 284.89 1102.16C266.62 1117.46 254.511 1127.61 254.033 1135.95C253.961 1137.15 254.147 1138.36 254.578 1139.49C255.008 1140.61 255.673 1141.63 256.529 1142.48C260.353 1146.57 266.407 1148.43 275.542 1148.43C288.467 1147.72 301.31 1145.95 313.941 1143.12C335.142 1138.64 356.704 1136.08 378.364 1135.47C409.275 1135.47 434.184 1143.17 454.578 1159.01C483.311 1181.32 525.852 1205.17 559.1 1205.17C569.993 1205.53 580.708 1202.34 589.638 1196.09C594.031 1192.85 597.67 1188.7 600.302 1183.92C602.933 1179.14 604.496 1173.85 604.881 1168.41ZM559.1 1203.63C526.224 1203.63 484.107 1179.99 455.587 1157.84C434.874 1141.9 409.646 1133.93 378.364 1133.93C356.612 1134.52 334.959 1137.1 313.676 1141.63C301.133 1144.46 288.378 1146.23 275.542 1146.95C272.363 1147.33 269.138 1147.06 266.068 1146.14C262.998 1145.23 260.149 1143.69 257.697 1141.63C256.988 1140.95 256.436 1140.12 256.078 1139.2C255.72 1138.29 255.566 1137.3 255.626 1136.32C256.051 1128.67 268.585 1118.15 285.952 1103.65C327.909 1068.48 398.121 1009.67 409.806 900.87C411.187 887.854 413.364 882.064 416.763 882.064C422.552 882.064 433.174 896.673 450.754 920.898C477.977 958.957 507.138 995.591 538.121 1030.65C561.383 1056.9 607.961 1125.01 603.288 1168.25C602.918 1173.46 601.427 1178.54 598.915 1183.12C596.403 1187.71 592.931 1191.69 588.735 1194.81C580.05 1200.84 569.666 1203.93 559.1 1203.63Z" fill="#105C04" fill-opacity="0.08"/>
<path d="M1058.66 731.294C1053.35 814.382 1077.03 871.545 1101.15 897.364C1112.19 909.211 1124.3 915.692 1135.3 915.692C1150.75 915.692 1162.38 903.526 1168.01 881.479C1204.29 739.21 1080.75 589.29 1065.61 576.753C1061.21 573.193 1058.23 572.715 1056.27 574.84C1052.71 578.718 1053.82 591.415 1055.84 614.419C1059.85 653.243 1060.79 692.322 1058.66 731.294ZM1058.29 576.647C1058.39 576.507 1058.53 576.396 1058.68 576.321C1058.84 576.247 1059.01 576.213 1059.19 576.222C1059.93 576.222 1061.37 576.7 1063.97 578.825C1079 591.256 1201.47 739.847 1165.52 880.789C1160.2 901.614 1149.58 913.036 1135.35 913.036C1125.1 913.036 1113.68 906.82 1103.16 895.557C1079.37 870.164 1055.9 813.691 1061.31 731.454C1063.48 692.358 1062.53 653.153 1058.5 614.206C1056.8 594.125 1055.52 579.675 1058.29 576.647Z" fill="#105C04" fill-opacity="0.08"/>
<path d="M1017.44 726.513C1011.28 807.104 1027.22 872.342 1062.27 910.167C1080.59 929.983 1103.11 940.873 1125.68 940.873C1157.87 940.873 1183.57 918.508 1191.27 883.923C1213.63 782.985 1179.01 691.769 1146.02 633.278C1107.25 564.215 1057.7 515.871 1033.85 499.934C1025.09 494.143 1018.93 490.531 1015.21 490.531C1014.6 490.505 1014 490.616 1013.44 490.855C1012.88 491.094 1012.38 491.455 1011.97 491.912C1008.89 495.365 1010.17 505.193 1012.66 524.796C1021.62 591.658 1023.23 659.301 1017.44 726.513ZM1013.14 492.762C1013.4 492.472 1013.72 492.245 1014.08 492.097C1014.44 491.95 1014.83 491.887 1015.21 491.912C1018.56 491.912 1024.72 495.577 1032.95 501.049C1086.86 537.015 1230.05 700.907 1189.68 883.551C1182.19 917.392 1157.07 939.28 1125.68 939.28C1103.54 939.28 1081.44 928.654 1063.44 909.104C1028.65 871.598 1012.88 806.785 1019.04 726.619C1024.85 659.354 1023.23 591.653 1014.2 524.743C1012.13 506.681 1010.65 495.896 1013.25 492.974L1013.14 492.762Z" fill="#105C04" fill-opacity="0.08"/>
<path d="M987.011 731.718C980.85 832.019 1000.08 911.282 1041.02 954.844C1062.27 977.369 1087.97 989.323 1115.38 989.323C1167.96 989.323 1212.47 946.822 1226.22 883.444C1246.46 790.05 1229.04 698.09 1174.49 610.115C1119.2 521.024 1042.72 463.436 1002.04 437.033C981.328 423.592 972.459 417.961 969.059 422.051C965.66 426.142 968.103 435.12 971.715 454.351C979.682 496.055 996.199 582.808 987.011 731.718ZM970.334 423.061C970.573 422.796 970.87 422.591 971.202 422.462C971.534 422.333 971.892 422.283 972.246 422.317C976.495 422.317 985.842 428.373 1001.24 438.255C1136.78 526.283 1266.8 689.324 1224.68 883.019C1211.14 945.547 1167.21 987.623 1115.43 987.623C1088.4 987.623 1063.07 975.882 1042.19 953.676C1001.51 910.432 982.496 831.488 988.551 731.718C997.686 582.596 981.222 495.683 973.361 453.926C970.015 436.501 968.05 425.876 970.334 423.061Z" fill="#105C04" fill-opacity="0.08"/>
<path d="M375.761 398.464C390.845 398.464 401.573 383.961 412.939 362.18C433.121 324.142 475.131 305.761 497.916 295.826C509.388 290.832 513.849 288.973 513.105 285.839C512.362 282.704 509.706 282.067 494.092 281.004C447.036 277.817 341.452 322.708 329.449 356.495C327.943 360.101 327.7 364.111 328.761 367.873C329.822 371.634 332.123 374.927 335.291 377.214C353.402 392.248 365.511 398.464 375.761 398.464ZM332.742 357.77C343.842 326.904 441.99 284.564 488.993 284.564C490.657 284.564 492.251 284.564 493.773 284.564C498.793 284.698 503.79 285.302 508.697 286.37C504.723 288.588 500.607 290.54 496.376 292.214C473.379 302.307 430.572 321.008 409.805 360.214C396.793 384.917 387.233 394.533 375.761 394.533C366.467 394.533 355.048 388.37 337.628 373.973C335.106 372.207 333.253 369.642 332.366 366.693C331.48 363.744 331.612 360.582 332.742 357.717V357.77Z" fill="#105C04" fill-opacity="0.08"/>
<path d="M422.021 396.498C458.189 330.57 524.312 307.567 577.847 294.87C583.158 293.648 583.477 291.045 583.158 289.557C581.937 278.932 531.8 258.266 456.968 258.266C448.523 258.266 439.866 258.266 431.262 259.063C397.112 261.135 316.437 308.842 287.492 344.064C279.95 353.254 276.551 360.904 277.348 366.748C279.366 381.411 292.431 387.998 307.514 395.436C323.448 403.405 341.665 412.436 350.481 433.473C355.792 445.745 362.378 451.961 370.504 451.961C384.472 452.014 401.786 433.314 422.021 396.498ZM352.977 432.517C343.789 410.577 325.147 401.28 308.789 393.098C294.343 385.926 281.862 379.711 280.056 366.536C279.366 361.223 282.659 354.37 289.616 345.923C318.243 311.02 397.802 263.845 431.474 261.826C440.025 261.295 448.629 261.029 457.021 261.029C530.579 261.029 579.6 281.376 580.609 289.982C580.609 291.364 578.538 292.054 577.157 292.373C523.09 305.229 456.33 328.498 419.631 395.33C389.198 450.739 366.308 464.18 353.03 432.517H352.977Z" fill="#105C04" fill-opacity="0.08"/>
<path d="M1120.8 852.047C1123.61 852.047 1126.11 850.135 1128.13 846.257C1138.75 826.866 1138.27 759.716 1110.81 718.756C1107.25 713.444 1102.1 714.134 1098.22 720.828C1087.92 738.625 1083.57 795.203 1111.66 844.238C1114.58 849.444 1117.66 852.047 1120.8 852.047ZM1101.46 722.794C1102.79 720.456 1104.28 719.075 1105.34 719.075C1106.4 719.075 1107.25 720.244 1107.73 720.934C1134.02 760.034 1134.55 826.282 1124.83 844.504C1123.56 847 1122.12 848.329 1120.8 848.329C1119.47 848.329 1117.03 846.204 1114.9 842.485C1087.92 795.203 1091.8 739.422 1101.46 722.794Z" fill="#105C04" fill-opacity="0.08"/>
<path d="M578.06 1426.28C657.141 1417.3 751.306 1323.27 776.534 1251.44C820.403 1126.76 742.49 1026.35 667.126 929.239C594.365 835.526 525.693 747.019 559.099 639.228C588.204 545.356 682.21 494.674 755.874 494.674C795.601 494.674 829.91 508.752 852.588 534.359C879.356 564.746 889.978 610.965 883.18 667.809C859.44 863.523 852.376 1077.56 1070.45 1140.62C1094.28 1147.68 1118.99 1151.34 1143.85 1151.51C1235.67 1151.51 1294.26 1098.92 1327.29 1054.77C1390.54 970.145 1412.27 843.601 1381.94 739.794C1356.02 651.819 1304.98 566.446 1225.96 478.896C1108.53 348.739 948.4 236.857 737.02 136.823L727.832 132.466C638.871 90.3379 546.778 46.8284 449.904 22.8157C444.168 21.3814 437.795 19.6814 430.997 17.8751C401.042 9.90631 363.812 0.0250203 331.839 0.0250203C320.665 -0.226955 309.53 1.42583 298.911 4.91254C285.102 9.85319 277.348 19.3095 269.806 28.447C264.36 35.8254 257.697 42.2212 250.102 47.3596C241.418 51.8661 232.419 55.7367 223.175 58.9409C205.224 65.9003 186.688 73.0722 180.687 79.9254C169.374 93.2067 172.455 101.175 175.376 108.932C176.86 111.771 177.761 114.88 178.025 118.073C178.29 121.266 177.912 124.48 176.916 127.526L174.845 133.688C158.911 181.023 158.911 181.023 121.734 191.754C114.564 193.826 105.801 196.376 95.1788 199.776C64.7464 209.498 52.2124 224.479 40.2094 239.089C30.9799 251.584 19.1233 261.902 5.47508 269.317H3.98799C-15.1318 269.317 -160.124 278.879 -171.277 314.526C-174.251 324.142 -167.718 334.555 -151.891 345.552C-139.099 355.336 -123.487 360.721 -107.385 360.905C-103.035 360.854 -98.6918 360.57 -94.3727 360.055C-90.8674 359.736 -87.5746 359.417 -84.4411 359.417C-72.7567 359.417 -60.9662 362.711 -44.7675 402.608C-40.7842 412.436 -37.7038 420.511 -35.1545 427.152C-22.6735 459.983 -22.2486 460.408 9.61772 474.008C17.5312 477.408 27.3566 481.605 39.8376 487.343C80.8389 506.255 89.2304 527.718 99.8525 554.918C106.022 572.091 114.092 588.52 123.912 603.9C136.46 622.068 150.686 639.018 166.4 654.528C192.371 681.569 216.908 707.122 224.822 749.782C238.365 823.679 198.266 894.229 152.91 959.467C130.922 991.076 85.7251 1027.89 37.8725 1066.89C-43.3335 1133.13 -135.427 1208.15 -135.799 1277.63C-135.799 1317.32 -125.761 1347.81 -105.473 1367.95C-83.3789 1390.15 -49.813 1400.94 -2.86327 1400.94C65.2776 1400.94 149.033 1377.99 222.91 1357.69C281.066 1341.76 331.255 1327.94 363.387 1327.94C369.553 1327.8 375.707 1328.55 381.657 1330.17C412.62 1339.37 437.211 1359.02 460.951 1377.99C492.446 1403.17 522.241 1427.02 564.782 1427.02C569.219 1427.04 573.653 1426.79 578.06 1426.28ZM382.719 1326.56C376.418 1324.87 369.909 1324.09 363.387 1324.22C330.777 1324.22 280.322 1338.09 221.901 1354.13C148.236 1374.32 64.7996 1397.22 -2.86327 1397.22C-48.8039 1397.22 -81.52 1386.59 -102.87 1365.34C-122.415 1345.69 -132.241 1316.1 -132.081 1277.47C-131.763 1209.74 -40.3593 1135.26 40.2094 1069.6C88.2744 1030.65 133.684 993.467 155.937 961.592C201.772 895.663 242.242 824.316 228.486 749.091C220.467 705.369 195.558 679.391 169.215 651.978C153.532 636.631 139.308 619.86 126.726 601.881C117.072 586.708 109.128 570.512 103.039 553.59C92.0984 525.593 83.4945 503.493 41.1123 483.996C28.7375 478.152 18.9652 473.743 10.9455 470.396C-19.6993 457.274 -19.6993 457.274 -31.8085 425.611C-34.3578 418.918 -37.4382 410.842 -41.4215 401.014C-56.8767 362.924 -68.9328 355.486 -84.5473 355.486C-87.9912 355.541 -91.4302 355.772 -94.8507 356.177C-98.834 356.548 -102.977 356.974 -107.491 356.974C-122.881 356.844 -137.805 351.675 -149.979 342.258C-164.319 332.323 -170.374 323.292 -167.931 315.43C-158.265 284.404 -23.0984 272.929 3.77554 272.929H5.10332L5.5282 271.176L6.32484 272.823C20.686 265.202 33.1546 254.455 42.8118 241.373C55.2397 226.604 66.7647 212.526 96.4004 203.282C107.022 199.935 115.839 197.385 122.956 195.313C161.567 184.157 162.045 183.573 178.615 134.857L180.74 128.694C181.88 125.219 182.322 121.552 182.039 117.905C181.757 114.258 180.755 110.703 179.093 107.444C176.279 100.166 173.782 93.8442 183.661 82.2629C188.972 76.1004 207.826 68.7691 224.503 62.3409C233.959 59.0253 243.169 55.0488 252.067 50.4409C260.035 45.1041 267.008 38.416 272.674 30.6783C280.216 21.5407 287.333 12.9345 300.132 8.31256C310.414 4.96277 321.189 3.382 331.999 3.63754C363.334 3.74379 400.299 13.572 430.041 21.2751C436.839 23.0814 443.212 24.7814 449.001 26.2158C545.556 50.1221 637.437 93.5786 726.291 135.601L735.426 139.957C946.541 239.779 1106.14 351.395 1223.25 481.18C1301.85 568.465 1352.62 653.465 1378.59 740.857C1408.81 843.548 1387.09 968.817 1324.53 1052.54C1292.02 1096 1234.24 1147.8 1143.95 1147.8C1119.44 1147.68 1095.07 1144.1 1071.56 1137.17C856.306 1074.91 863.423 862.513 886.951 668.394C894.014 610.381 883.127 563.206 855.456 531.968C832.088 505.405 797.035 491.062 755.98 491.062C680.988 491.062 585.283 542.646 555.647 638.272C521.656 747.869 594.152 841.263 664.258 931.629C739.038 1027.95 816.314 1127.56 773.135 1250.38C748.226 1321.2 655.548 1413.9 577.741 1422.77C573.474 1423.25 569.183 1423.5 564.888 1423.52C523.622 1423.52 494.358 1400.09 463.394 1375.28C439.229 1355.89 414.373 1336.02 382.719 1326.56Z" fill="#105C04" fill-opacity="0.08"/>
</svg>
