<?xml version="1.0" standalone="no"?>
<!DOCTYPE svg PUBLIC "-//W3C//DTD SVG 20010904//EN"
 "http://www.w3.org/TR/2001/REC-SVG-20010904/DTD/svg10.dtd">
<svg version="1.0" xmlns="http://www.w3.org/2000/svg"
 width="2268.000000pt" height="688.000000pt" viewBox="0 0 2268.000000 688.000000"
 preserveAspectRatio="xMidYMid meet">

<g transform="translate(0.000000,688.000000) scale(0.100000,-0.100000)"
fill="#000000" stroke="none">
<path d="M0 3440 l0 -3440 11340 0 11340 0 0 3440 0 3440 -11340 0 -11340 0 0
-3440z m3580 1686 c0 -197 -4 -377 -10 -407 -32 -166 -119 -225 -352 -236
l-118 -6 0 67 0 66 45 0 c63 0 110 22 132 62 16 30 18 68 21 421 l3 387 140 0
139 0 0 -354z m532 17 c32 -29 44 -59 118 -291 37 -119 80 -252 93 -294 l25
-78 -112 0 -111 0 -18 60 -17 60 -113 0 -113 0 -15 -57 -15 -58 -57 -3 -56 -3
14 43 c8 24 36 115 64 203 119 384 128 406 184 431 40 18 102 12 129 -13z
m1260 0 c11 -10 26 -29 33 -43 11 -21 141 -416 190 -577 l13 -43 -112 0 -113
0 -16 60 -17 60 -113 0 -112 0 -18 -60 -17 -60 -54 0 -54 0 35 113 c97 314
155 485 173 515 37 60 134 79 182 35z m-485 -28 c8 -12 13 -32 10 -50 -3 -16
-55 -133 -116 -259 -61 -126 -111 -231 -111 -232 0 -2 61 -4 135 -4 l135 0 0
-45 0 -45 -260 0 -260 0 0 26 c0 15 56 143 124 285 l124 259 -129 0 -129 0 0
46 0 45 231 -3 c217 -3 232 -4 246 -23z m1392 -764 c115 -43 167 -54 227 -46
45 5 68 16 127 57 15 11 21 9 37 -12 23 -29 69 -122 81 -162 7 -26 3 -32 -42
-68 -117 -93 -222 -102 -417 -38 -96 32 -142 42 -188 41 -62 -1 -127 -25 -154
-58 -12 -14 -17 -11 -45 30 -18 25 -43 72 -55 105 -22 59 -22 61 -4 81 27 30
126 87 170 98 66 17 171 6 263 -28z m2199 10 l82 -23 0 -54 c0 -97 -74 -273
-109 -258 -54 22 -117 35 -196 40 -75 5 -96 2 -125 -13 -96 -50 -108 -175 -25
-253 l27 -25 246 -2 247 -2 129 165 129 165 56 -3 56 -3 2 -140 c1 -77 2 -150
2 -162 1 -22 4 -23 110 -23 69 0 112 -4 117 -11 11 -18 17 -172 10 -243 l-8
-66 -112 0 -113 0 -6 -182 c-10 -268 -43 -366 -166 -489 -111 -111 -256 -169
-476 -189 -262 -25 -497 40 -628 172 -74 75 -113 144 -132 235 -42 196 11 380
149 520 l71 72 -47 50 c-70 76 -109 162 -115 257 -10 143 30 259 119 347 64
63 133 101 230 127 106 29 357 24 476 -9z m2263 14 c46 -8 125 -27 174 -43
108 -33 107 -32 71 -173 -33 -129 -64 -202 -85 -195 -9 2 -56 19 -106 37 -82
29 -101 32 -210 33 -109 1 -124 -1 -162 -23 -53 -30 -77 -78 -70 -134 10 -77
52 -110 217 -174 273 -105 398 -192 456 -317 36 -78 47 -148 42 -271 -8 -179
-66 -296 -194 -393 -204 -154 -564 -185 -904 -76 -113 36 -107 24 -76 160 40
181 60 239 83 237 10 0 51 -13 92 -28 213 -77 425 -73 507 9 58 58 58 148 -1
209 -25 26 -65 47 -157 82 -229 88 -297 125 -375 206 -82 84 -123 195 -123
334 1 266 156 463 411 519 87 19 306 20 410 1z m-7673 -712 c-3 -707 -3 -708
-26 -768 -58 -153 -164 -247 -335 -292 -113 -31 -409 -18 -454 19 -24 19 -11
194 22 304 l15 51 52 -9 c29 -6 88 -8 130 -6 87 4 118 20 149 78 18 32 19 66
19 492 l0 458 -135 0 c-101 0 -135 3 -135 13 0 6 -4 49 -10 94 -8 77 1 241 16
264 3 5 160 9 350 9 l345 0 -3 -707z m897 222 c208 -40 340 -162 381 -354 10
-50 14 -161 14 -468 l0 -401 -107 -26 c-170 -40 -238 -48 -388 -48 -294 0
-460 72 -538 233 -51 103 -54 278 -6 371 31 62 111 135 182 169 87 40 176 57
345 65 138 7 142 8 136 28 -11 40 -40 71 -90 96 -44 22 -60 25 -159 24 -83 -1
-133 -7 -202 -26 l-92 -25 -25 56 c-31 70 -45 131 -46 197 l0 51 110 27 c190
47 349 57 485 31z m2461 0 c189 -36 310 -137 366 -305 21 -62 22 -85 26 -492
l3 -426 -108 -25 c-173 -41 -239 -49 -388 -49 -288 0 -452 67 -533 219 -85
161 -58 371 62 481 98 91 237 132 454 135 l134 2 -6 34 c-7 44 -38 76 -95 98
-68 27 -228 23 -348 -9 l-92 -24 -32 69 c-24 54 -32 87 -36 152 l-6 83 111 26
c201 48 349 58 488 31z m5564 -10 c134 -41 238 -124 286 -229 49 -107 54 -160
54 -588 l0 -396 -108 -26 c-175 -41 -239 -49 -392 -48 -289 0 -454 70 -530
226 -106 216 -31 451 174 547 87 41 185 59 345 65 134 5 136 5 133 27 -5 37
-36 71 -88 97 -44 23 -60 25 -159 24 -80 -2 -135 -8 -202 -26 l-92 -24 -32 69
c-24 53 -32 87 -36 151 l-6 82 89 22 c49 13 125 30 169 37 105 19 319 13 395
-10z m2621 11 c195 -42 346 -193 394 -397 15 -66 20 -248 9 -333 l-7 -46 -368
0 c-415 0 -392 5 -344 -76 54 -91 177 -126 351 -100 54 8 126 24 158 36 33 11
61 20 63 20 2 0 14 -24 27 -52 25 -58 51 -156 60 -230 l6 -47 -65 -20 c-138
-43 -225 -55 -380 -55 -170 0 -234 13 -354 69 -91 43 -193 143 -234 228 -51
106 -69 197 -69 347 0 225 51 369 178 497 113 115 252 171 429 172 44 0 110
-6 146 -13z m1305 3 c92 -16 197 -72 264 -139 129 -129 180 -322 154 -579 l-7
-61 -374 0 -373 0 15 -37 c26 -63 48 -87 109 -117 54 -27 68 -30 155 -29 96 1
198 18 280 47 24 9 45 16 46 16 2 0 14 -28 29 -62 30 -73 56 -177 56 -229 0
-42 -5 -45 -129 -78 -160 -44 -382 -50 -529 -16 -293 69 -455 315 -439 665 14
280 129 474 340 574 105 50 274 69 403 45z m1244 1 c63 -6 140 -17 170 -26
160 -46 276 -169 315 -336 12 -50 15 -149 15 -490 l0 -427 -47 -7 c-60 -10
-243 -10 -305 0 l-48 7 0 342 c0 354 -8 460 -38 511 -26 46 -93 76 -168 76
-104 0 -94 50 -94 -470 l0 -459 -57 -7 c-73 -10 -243 -10 -305 0 l-48 7 0 600
0 599 23 9 c69 27 252 64 345 70 59 5 112 9 117 9 6 1 62 -3 125 -8z m1451
-18 c165 -47 275 -161 314 -323 12 -52 15 -144 15 -475 l0 -412 -22 -6 c-87
-25 -262 -57 -357 -66 -175 -16 -353 5 -469 56 -74 33 -153 111 -188 187 -27
57 -29 71 -29 182 0 106 3 126 24 169 53 106 169 187 317 220 39 8 135 19 213
22 l142 7 -6 26 c-29 115 -247 153 -477 81 l-60 -18 -30 65 c-30 64 -57 195
-46 225 7 18 126 52 255 73 117 19 315 13 404 -13z m-5617 -1 c14 -12 16 -76
16 -625 0 -341 -4 -617 -9 -625 -11 -17 -230 -28 -335 -16 l-66 7 2 631 3 632
35 7 c63 12 336 4 354 -11z m776 3 c10 -10 -9 -50 -216 -448 l-72 -139 168
-337 169 -337 -46 -7 c-60 -8 -307 -7 -357 2 l-40 7 -162 327 -163 327 141
298 c78 164 143 300 144 302 14 20 415 24 434 5z m5833 2 c15 -7 17 -28 17
-222 l0 -214 185 0 185 0 0 215 c0 196 2 216 18 223 23 9 330 9 365 -1 l27 -7
0 -629 0 -629 -67 -8 c-84 -10 -209 -10 -285 0 l-58 7 0 235 0 234 -185 0
-185 0 0 -234 0 -235 -57 -7 c-82 -10 -206 -10 -285 -1 l-68 9 0 629 0 629 23
4 c12 3 31 7 42 10 31 7 308 0 328 -8z m-13998 -47 c7 -40 2 -50 -238 -448
-136 -224 -249 -414 -253 -424 -6 -16 11 -17 224 -17 l231 0 8 -37 c10 -47 10
-229 0 -265 l-7 -28 -513 0 -513 0 -18 36 -17 37 222 371 c122 204 237 396
255 426 l32 55 -208 3 -209 2 -8 38 c-10 49 -10 207 0 255 l8 37 499 0 498 0
7 -41z m5574 -1778 c12 -8 13 -62 7 -345 -4 -185 -9 -343 -12 -351 -8 -21 -43
-29 -61 -14 -13 12 -14 52 -8 349 3 184 9 343 11 353 6 18 40 23 63 8z m7255
-4 c11 -8 17 -23 14 -37 -2 -20 -11 -26 -45 -32 -23 -4 -52 -12 -63 -18 -28
-15 -59 -85 -60 -130 l0 -35 59 3 c70 4 101 -9 101 -43 0 -28 -15 -34 -105
-37 l-60 -3 -5 -201 c-5 -201 -11 -234 -44 -234 -37 1 -39 13 -37 225 l2 206
-35 -6 c-52 -10 -76 1 -76 35 0 23 6 30 31 39 18 6 44 11 59 11 26 0 27 3 34
61 7 71 33 135 67 166 42 37 130 54 163 30z m1892 -14 c8 -29 -4 -656 -12
-678 -7 -18 -33 -27 -57 -19 -19 6 -19 13 -12 353 4 206 11 351 17 359 6 6 21
12 34 12 17 0 25 -7 30 -27z m244 12 c10 -12 11 -84 6 -338 -4 -177 -10 -332
-13 -344 -8 -35 -64 -42 -76 -10 -5 15 12 677 18 695 6 17 50 15 65 -3z
m-7887 -85 c-1 -47 -3 -203 -5 -348 -3 -249 -4 -263 -22 -268 -13 -4 -25 0
-36 13 -16 20 -16 20 -56 0 -62 -33 -148 -30 -209 8 -68 42 -98 102 -97 195 1
159 104 263 245 247 27 -4 58 -14 68 -23 11 -10 22 -15 25 -12 3 3 8 57 11
119 7 142 14 161 51 157 l27 -3 -2 -85z m1030 -10 c-1 -52 -3 -209 -5 -348 -3
-239 -4 -253 -22 -258 -13 -4 -25 0 -36 13 -15 19 -17 20 -50 2 -80 -43 -174
-32 -241 28 -51 46 -69 90 -69 167 0 163 103 270 245 253 25 -2 55 -13 65 -22
11 -10 23 -15 27 -12 3 4 9 63 13 131 4 68 11 129 15 136 4 6 19 10 33 8 l27
-3 -2 -95z m3381 7 c13 -10 19 -32 23 -81 l6 -68 46 6 c75 9 124 -29 86 -68
-12 -11 -34 -16 -76 -16 l-60 0 3 -191 c3 -176 2 -192 -15 -204 -19 -14 -46
-10 -58 8 -4 5 -7 91 -8 189 -1 99 -4 184 -7 189 -3 5 -25 9 -50 9 -58 0 -84
14 -84 45 0 33 16 40 80 37 l55 -3 -3 64 c-3 49 0 68 13 80 20 20 26 21 49 4z
m-5224 -146 c5 -11 10 -34 10 -52 l0 -31 41 36 c22 20 51 41 65 46 68 26 134
-1 152 -63 9 -29 24 -229 26 -356 1 -61 -19 -86 -51 -65 -24 15 -42 136 -41
270 1 119 -10 149 -50 140 -41 -10 -106 -84 -130 -149 -16 -43 -22 -80 -22
-145 0 -91 -8 -112 -42 -112 -37 0 -41 33 -33 264 4 122 9 224 12 229 9 15 53
7 63 -12z m2308 3 c5 -9 7 -25 5 -35 -7 -24 -5 -23 48 1 57 25 134 26 175 1
62 -38 100 -183 74 -289 -14 -62 -67 -126 -117 -143 -21 -7 -64 -9 -104 -7
l-69 5 0 -118 c0 -107 -2 -119 -19 -129 -24 -12 -49 -4 -55 18 -8 30 -11 687
-3 700 12 17 54 15 65 -4z m1402 1 c7 -8 10 -24 7 -35 -6 -24 -10 -24 48 1 37
16 62 20 108 17 52 -4 64 -9 88 -36 51 -57 74 -192 48 -285 -12 -46 -68 -110
-109 -127 -18 -7 -58 -11 -99 -8 l-69 4 -6 -36 c-3 -19 -6 -72 -6 -117 0 -74
-2 -84 -21 -94 -18 -9 -25 -8 -40 7 -16 18 -18 46 -20 354 -1 184 2 343 6 353
9 21 48 22 65 2z m-3944 -32 c35 -18 39 -24 37 -54 -2 -19 -4 -83 -5 -144 -2
-93 2 -119 20 -165 27 -67 27 -77 3 -90 -16 -8 -26 -5 -51 16 l-31 26 -49 -21
c-98 -42 -202 -15 -242 63 -29 56 -36 159 -15 221 37 108 136 179 238 173 30
-2 73 -13 95 -25z m1446 17 c78 -22 113 -110 65 -162 -13 -14 -83 -54 -155
-89 -73 -34 -132 -66 -132 -70 0 -5 16 -20 36 -35 63 -49 197 -42 251 12 29
29 49 31 63 4 32 -60 -116 -140 -233 -127 -155 19 -230 140 -183 298 41 142
151 207 288 169z m1572 -6 c9 -8 16 -24 16 -35 0 -25 0 -25 60 13 38 24 66 33
109 36 52 4 60 2 75 -19 11 -16 16 -44 16 -86 0 -53 -3 -64 -21 -73 -28 -16
-49 4 -49 45 0 55 -7 64 -43 55 -54 -12 -95 -38 -122 -77 -24 -36 -25 -45 -25
-174 0 -107 -3 -139 -15 -149 -20 -17 -54 -3 -61 27 -4 14 -5 117 -2 230 4
161 8 207 19 214 19 12 25 11 43 -7z m618 6 c46 -13 92 -66 108 -126 8 -26 11
-76 8 -123 -8 -133 -70 -210 -175 -219 -73 -6 -125 18 -166 77 -27 39 -31 56
-35 126 -4 68 -1 89 18 133 25 58 85 118 127 128 16 3 33 7 38 9 19 6 40 5 77
-5z m999 0 c58 -16 89 -52 89 -101 0 -57 -29 -81 -184 -153 -69 -32 -126 -63
-126 -67 0 -4 16 -20 36 -35 65 -50 187 -44 254 13 48 40 89 8 56 -43 -40 -60
-156 -95 -253 -75 -137 27 -196 133 -159 282 38 150 147 218 287 179z m283 -6
c9 -8 16 -24 16 -35 0 -25 0 -25 60 13 38 24 66 33 109 36 52 4 60 2 75 -19
11 -16 16 -44 16 -86 0 -53 -3 -64 -21 -73 -30 -17 -47 3 -51 58 -3 44 -5 47
-28 44 -47 -6 -111 -44 -135 -80 -24 -35 -25 -45 -25 -173 0 -107 -3 -139 -15
-149 -20 -17 -54 -3 -61 27 -4 14 -5 117 -2 230 4 161 8 207 19 214 19 12 25
11 43 -7z m803 8 c18 -11 103 -156 138 -234 17 -37 33 -68 36 -68 3 0 30 54
59 120 78 179 106 213 144 174 21 -21 24 -12 -99 -280 -58 -123 -119 -265
-137 -315 -37 -101 -54 -119 -89 -90 -23 19 -23 19 -6 73 9 30 32 90 51 133
l34 78 -28 51 c-84 155 -160 309 -160 326 0 10 8 24 18 29 21 13 24 13 39 3z
m1488 -21 c98 -56 112 -285 23 -386 -42 -49 -77 -65 -141 -65 -168 0 -245 226
-133 389 58 83 168 110 251 62z m256 19 c11 -6 19 -21 19 -35 0 -14 2 -25 4
-25 3 0 28 14 56 32 38 24 66 33 110 36 54 4 59 2 75 -22 25 -37 25 -134 1
-152 -31 -23 -54 -1 -58 54 -3 44 -5 47 -28 44 -53 -7 -110 -43 -135 -86 -23
-40 -25 -52 -25 -173 0 -140 -7 -162 -50 -148 -19 6 -20 13 -20 240 0 226 1
238 28 244 2 1 12 -4 23 -9z m946 -9 c52 -24 66 -48 52 -90 -18 -52 -6 -237
19 -294 12 -26 19 -53 16 -61 -11 -27 -37 -27 -65 0 l-28 27 -50 -22 c-104
-44 -206 -16 -248 69 -27 53 -32 179 -9 234 51 122 201 187 313 137z m-9546
-403 c21 -39 -19 -86 -61 -73 -44 14 -49 79 -7 94 29 11 55 3 68 -21z m207 16
c39 -27 19 -94 -28 -94 -47 0 -67 67 -28 94 12 9 25 16 28 16 3 0 16 -7 28
-16z m232 -4 c26 -26 25 -52 0 -75 -16 -15 -26 -17 -48 -9 -37 13 -43 65 -10
88 29 20 34 20 58 -4z"/>
<path d="M3937 4842 c-21 -75 -38 -140 -37 -144 0 -5 37 -8 81 -8 80 0 81 1
75 23 -3 12 -21 77 -38 145 -18 67 -35 122 -38 122 -3 0 -22 -62 -43 -138z"/>
<path d="M5197 4842 c-20 -75 -37 -140 -37 -144 0 -5 37 -8 81 -8 80 0 81 1
75 23 -3 12 -21 77 -38 145 -18 67 -35 122 -38 122 -3 0 -22 -62 -43 -138z"/>
<path d="M8202 3439 c-54 -10 -101 -39 -130 -79 -74 -99 -68 -269 10 -349 57
-58 81 -66 208 -66 128 0 163 12 229 77 64 62 75 104 76 273 l0 150 -175 2
c-96 0 -194 -3 -218 -8z"/>
<path d="M3758 3160 c-78 -23 -118 -70 -118 -136 0 -51 28 -91 80 -117 38 -18
61 -22 146 -21 55 0 106 4 112 8 8 5 12 50 12 142 l0 134 -102 -1 c-57 0 -115
-4 -130 -9z"/>
<path d="M6183 3146 c-79 -37 -107 -117 -66 -187 34 -58 161 -90 278 -72 l49
8 3 122 c1 68 0 129 -3 138 -5 12 -26 15 -108 15 -86 0 -109 -4 -153 -24z"/>
<path d="M11730 3161 c-51 -16 -90 -42 -105 -71 -17 -34 -20 -89 -4 -122 27
-61 142 -96 265 -81 l69 8 3 138 3 137 -103 -1 c-57 0 -114 -4 -128 -8z"/>
<path d="M14375 3576 c-16 -8 -41 -24 -54 -36 -27 -27 -60 -96 -61 -127 l0
-23 199 0 198 0 -7 38 c-12 65 -50 121 -102 148 -34 18 -133 18 -173 0z"/>
<path d="M15677 3569 c-46 -24 -84 -80 -93 -136 l-7 -43 197 0 c219 0 207 -5
186 72 -13 44 -52 93 -91 113 -41 22 -145 19 -192 -6z"/>
<path d="M18324 3154 c-22 -8 -54 -28 -70 -45 -24 -25 -29 -39 -29 -78 0 -99
70 -146 220 -145 133 0 125 -10 125 149 l0 135 -102 -1 c-63 0 -119 -6 -144
-15z"/>
<path d="M12402 1715 c-48 -21 -76 -88 -70 -168 4 -54 8 -63 41 -93 20 -18 48
-36 62 -40 38 -10 91 4 125 32 30 25 30 27 30 124 0 89 -2 102 -23 126 -19 22
-34 28 -78 31 -34 2 -66 -2 -87 -12z"/>
<path d="M13431 1713 c-42 -21 -70 -80 -71 -148 0 -140 153 -207 244 -106 15
17 19 39 21 113 3 92 3 92 -30 125 -28 28 -40 33 -81 33 -27 0 -64 -8 -83 -17z"/>
<path d="M14255 1704 c-63 -33 -65 -38 -65 -155 l0 -107 31 -11 c119 -41 202
37 184 173 -8 59 -27 101 -50 110 -28 10 -69 7 -100 -10z"/>
<path d="M15649 1700 c-61 -32 -63 -38 -53 -158 l9 -107 46 -9 c88 -17 143 19
155 102 8 56 -9 147 -32 173 -22 25 -78 24 -125 -1z"/>
<path d="M11494 1729 c-62 -18 -124 -112 -124 -189 0 -47 21 -99 48 -121 53
-42 180 -4 175 52 -1 13 -4 75 -5 137 -4 136 -11 145 -94 121z"/>
<path d="M12955 1726 c-16 -7 -38 -22 -47 -32 -22 -25 -61 -114 -54 -121 12
-12 236 101 243 123 9 27 -99 50 -142 30z"/>
<path d="M15155 1698 c-63 -50 -86 -175 -42 -239 38 -57 113 -64 162 -15 53
53 57 188 8 246 -31 38 -86 41 -128 8z"/>
<path d="M16154 1729 c-16 -5 -40 -19 -52 -32 -25 -27 -67 -127 -53 -127 14 0
171 75 215 103 l39 24 -24 16 c-32 20 -87 27 -125 16z"/>
<path d="M18698 1704 c-53 -28 -87 -132 -68 -203 27 -103 137 -120 197 -32 42
62 26 213 -25 240 -28 15 -72 13 -104 -5z"/>
<path d="M19910 1724 c-73 -32 -110 -92 -110 -180 0 -125 70 -175 176 -124
l42 21 -4 142 c-3 124 -6 143 -21 149 -27 10 -45 9 -83 -8z"/>
</g>
</svg>
